<svg xmlns="http://www.w3.org/2000/svg" xmlns:xlink="http://www.w3.org/1999/xlink" width="500" zoomAndPan="magnify" viewBox="0 0 375 374.999991" height="500" preserveAspectRatio="xMidYMid meet" version="1.0"><defs><g/><clipPath id="b360e4a7a9"><path d="M 112.5 122 L 138 122 L 138 199.914062 L 112.5 199.914062 Z M 112.5 122 " clip-rule="nonzero"/></clipPath><clipPath id="7c157145cb"><path d="M 237.703125 122.40625 L 262.496094 122.40625 L 262.496094 199.910156 L 237.703125 199.910156 Z M 237.703125 122.40625 " clip-rule="nonzero"/></clipPath><clipPath id="d8c33d4c0a"><path d="M 175 104.664062 L 200 104.664062 L 200 131 L 175 131 Z M 175 104.664062 " clip-rule="nonzero"/></clipPath></defs><path fill="#4a87ce" d="M 163.644531 148.097656 C 161.804688 148.097656 160.089844 148.445312 158.5 149.140625 C 156.90625 149.835938 155.527344 150.773438 154.359375 151.953125 C 153.191406 153.132812 152.265625 154.519531 151.582031 156.109375 C 150.898438 157.699219 150.558594 159.390625 150.558594 161.179688 C 150.558594 162.96875 150.898438 164.660156 151.582031 166.25 C 152.265625 167.839844 153.191406 169.226562 154.359375 170.40625 C 155.527344 171.585938 156.90625 172.523438 158.5 173.21875 C 160.089844 173.914062 161.804688 174.261719 163.644531 174.261719 C 165.457031 174.261719 167.160156 173.914062 168.75 173.21875 C 170.339844 172.523438 171.726562 171.578125 172.90625 170.386719 C 174.085938 169.195312 175.015625 167.808594 175.699219 166.230469 C 176.382812 164.652344 176.726562 162.96875 176.726562 161.179688 C 176.726562 159.390625 176.382812 157.707031 175.699219 156.128906 C 175.015625 154.550781 174.085938 153.164062 172.90625 151.972656 C 171.726562 150.78125 170.339844 149.835938 168.75 149.140625 C 167.160156 148.445312 165.457031 148.097656 163.644531 148.097656 Z M 184.515625 161.179688 C 184.515625 166.996094 182.476562 171.914062 178.402344 175.941406 C 174.277344 180.015625 169.359375 182.054688 163.644531 182.054688 C 157.875 182.054688 152.957031 180.015625 148.882812 175.941406 C 144.804688 171.867188 142.769531 166.945312 142.769531 161.179688 C 142.769531 155.414062 144.804688 150.496094 148.882812 146.417969 C 152.957031 142.34375 157.875 140.304688 163.644531 140.304688 C 169.359375 140.304688 174.277344 142.34375 178.402344 146.417969 C 180.441406 148.457031 181.964844 150.707031 182.96875 153.164062 C 183.976562 155.625 184.492188 158.296875 184.515625 161.179688 " fill-opacity="1" fill-rule="nonzero"/><path fill="#4a87ce" d="M 211.355469 148.097656 C 209.515625 148.097656 207.800781 148.445312 206.210938 149.140625 C 204.621094 149.835938 203.242188 150.773438 202.074219 151.953125 C 200.90625 153.132812 199.980469 154.519531 199.296875 156.109375 C 198.613281 157.699219 198.273438 159.390625 198.273438 161.179688 C 198.273438 162.96875 198.613281 164.660156 199.296875 166.25 C 199.980469 167.839844 200.90625 169.226562 202.074219 170.40625 C 203.242188 171.585938 204.621094 172.523438 206.210938 173.21875 C 207.800781 173.914062 209.515625 174.261719 211.355469 174.261719 C 213.167969 174.261719 214.871094 173.914062 216.460938 173.21875 C 218.050781 172.523438 219.4375 171.578125 220.617188 170.386719 C 221.796875 169.195312 222.730469 167.808594 223.414062 166.230469 C 224.097656 164.652344 224.4375 162.96875 224.4375 161.179688 C 224.4375 159.390625 224.097656 157.707031 223.414062 156.128906 C 222.730469 154.550781 221.796875 153.164062 220.617188 151.972656 C 219.4375 150.78125 218.050781 149.835938 216.460938 149.140625 C 214.871094 148.445312 213.167969 148.097656 211.355469 148.097656 Z M 232.230469 161.179688 C 232.230469 166.996094 230.191406 171.914062 226.117188 175.941406 C 221.992188 180.015625 217.070312 182.054688 211.355469 182.054688 C 205.589844 182.054688 200.667969 180.015625 196.59375 175.941406 C 192.519531 171.867188 190.480469 166.945312 190.480469 161.179688 C 190.480469 155.414062 192.519531 150.496094 196.59375 146.417969 C 200.667969 142.34375 205.589844 140.304688 211.355469 140.304688 C 217.070312 140.304688 221.992188 142.34375 226.117188 146.417969 C 228.152344 148.457031 229.675781 150.707031 230.683594 153.164062 C 231.6875 155.625 232.203125 158.296875 232.230469 161.179688 " fill-opacity="1" fill-rule="nonzero"/><g clip-path="url(#b360e4a7a9)"><path fill="#211d1d" d="M 133.375 122.449219 C 134.492188 122.449219 135.417969 122.828125 136.152344 123.585938 C 136.882812 124.34375 137.25 125.269531 137.25 126.363281 C 137.25 127.484375 136.882812 128.410156 136.152344 129.140625 C 135.417969 129.875 134.492188 130.242188 133.375 130.242188 C 130.292969 130.242188 128.753906 131.78125 128.753906 134.863281 L 128.753906 152.679688 C 128.753906 156.257812 127.933594 159.09375 126.292969 161.179688 C 127.933594 163.265625 128.753906 166.101562 128.753906 169.679688 L 128.753906 187.496094 C 128.753906 190.578125 130.292969 192.121094 133.375 192.121094 C 134.492188 192.121094 135.417969 192.484375 136.152344 193.21875 C 136.882812 193.953125 137.25 194.875 137.25 195.996094 C 137.25 197.113281 136.882812 198.046875 136.152344 198.792969 C 135.417969 199.535156 134.492188 199.910156 133.375 199.910156 C 125.097656 199.910156 120.960938 195.773438 120.960938 187.496094 L 120.960938 169.679688 C 120.960938 166.597656 119.433594 165.054688 116.375 165.054688 C 115.257812 165.054688 114.332031 164.691406 113.597656 163.957031 C 112.867188 163.222656 112.5 162.296875 112.5 161.179688 C 112.5 160.0625 112.867188 159.136719 113.597656 158.402344 C 114.332031 157.671875 115.257812 157.304688 116.375 157.304688 C 119.433594 157.304688 120.960938 155.761719 120.960938 152.679688 L 120.960938 134.863281 C 120.960938 126.585938 125.097656 122.449219 133.375 122.449219 " fill-opacity="1" fill-rule="nonzero"/></g><g clip-path="url(#7c157145cb)"><path fill="#211d1d" d="M 254.035156 134.863281 L 254.035156 152.679688 C 254.035156 155.761719 255.5625 157.304688 258.621094 157.304688 C 259.738281 157.304688 260.664062 157.671875 261.398438 158.402344 C 262.132812 159.136719 262.496094 160.0625 262.496094 161.179688 C 262.496094 162.296875 262.132812 163.222656 261.398438 163.957031 C 260.664062 164.691406 259.738281 165.054688 258.621094 165.054688 C 255.5625 165.054688 254.035156 166.597656 254.035156 169.679688 L 254.035156 187.496094 C 254.035156 195.773438 249.898438 199.910156 241.621094 199.910156 C 240.503906 199.910156 239.578125 199.535156 238.84375 198.792969 C 238.113281 198.046875 237.746094 197.113281 237.746094 195.996094 C 237.746094 194.875 238.113281 193.953125 238.84375 193.21875 C 239.578125 192.484375 240.503906 192.121094 241.621094 192.121094 C 244.703125 192.121094 246.246094 190.578125 246.246094 187.496094 L 246.246094 169.679688 C 246.246094 166.101562 247.066406 163.265625 248.707031 161.179688 C 247.066406 159.09375 246.246094 156.257812 246.246094 152.679688 L 246.246094 134.863281 C 246.246094 131.78125 244.703125 130.242188 241.621094 130.242188 C 240.503906 130.242188 239.578125 129.875 238.84375 129.140625 C 238.113281 128.410156 237.746094 127.484375 237.746094 126.363281 C 237.746094 125.269531 238.113281 124.34375 238.84375 123.585938 C 239.578125 122.828125 240.503906 122.449219 241.621094 122.449219 C 249.898438 122.449219 254.035156 126.585938 254.035156 134.863281 " fill-opacity="1" fill-rule="nonzero"/></g><g clip-path="url(#d8c33d4c0a)"><path fill="#211d1d" d="M 199.167969 125.539062 C 199.167969 126.1875 199.042969 126.789062 198.792969 127.347656 C 198.542969 127.90625 198.214844 128.398438 197.804688 128.820312 C 197.394531 129.242188 196.902344 129.574219 196.332031 129.808594 C 195.761719 130.046875 195.164062 130.164062 194.542969 130.164062 C 193.398438 130.164062 192.417969 129.765625 191.597656 128.96875 C 190.777344 128.175781 190.109375 127.199219 189.585938 126.042969 C 189.0625 124.886719 188.683594 123.695312 188.449219 122.464844 C 188.214844 121.234375 188.09375 120.085938 188.09375 119.019531 C 188.09375 114.617188 189.972656 110.171875 193.722656 105.671875 C 194.394531 105 195.152344 104.667969 195.996094 104.667969 C 196.867188 104.667969 197.613281 104.976562 198.234375 105.597656 C 198.855469 106.21875 199.167969 106.964844 199.167969 107.835938 C 199.167969 108.257812 199.078125 108.691406 198.90625 109.140625 C 197.785156 111.875 197.226562 114.46875 197.226562 116.929688 C 197.226562 119.265625 197.734375 121.527344 198.753906 123.714844 C 199.03125 124.335938 199.167969 124.945312 199.167969 125.539062 Z M 186.902344 125.539062 C 186.902344 126.1875 186.777344 126.789062 186.53125 127.347656 C 186.28125 127.90625 185.953125 128.398438 185.542969 128.820312 C 185.132812 129.242188 184.640625 129.574219 184.070312 129.808594 C 183.496094 130.046875 182.902344 130.164062 182.28125 130.164062 C 181.136719 130.164062 180.15625 129.765625 179.335938 128.96875 C 178.515625 128.175781 177.84375 127.199219 177.324219 126.042969 C 176.800781 124.886719 176.421875 123.695312 176.183594 122.464844 C 175.949219 121.234375 175.832031 120.085938 175.832031 119.019531 C 175.832031 114.617188 177.707031 110.171875 181.460938 105.671875 C 182.128906 105 182.886719 104.667969 183.734375 104.667969 C 184.601562 104.667969 185.347656 104.976562 185.96875 105.597656 C 186.589844 106.21875 186.902344 106.964844 186.902344 107.835938 C 186.902344 108.257812 186.816406 108.691406 186.640625 109.140625 C 185.523438 111.875 184.964844 114.46875 184.964844 116.929688 C 184.964844 119.265625 185.472656 121.527344 186.492188 123.714844 C 186.765625 124.335938 186.902344 124.945312 186.902344 125.539062 " fill-opacity="1" fill-rule="nonzero"/></g><g fill="#4a87ce" fill-opacity="1"><g transform="translate(123.884748, 247.155334)"><g><path d="M 6.8125 -20.3125 C 7.445312 -20.269531 7.90625 -20.25 8.1875 -20.25 L 9.375 -20.25 C 9.875 -20.25 10.367188 -20.285156 10.859375 -20.359375 L 10.859375 -6.734375 C 10.859375 -4.492188 10.265625 -2.738281 9.078125 -1.46875 C 7.941406 -0.238281 6.414062 0.375 4.5 0.375 C 3.1875 0.375 2.082031 0.113281 1.1875 -0.40625 C 0.851562 -0.601562 0.519531 -0.835938 0.1875 -1.109375 L 0.1875 -5.515625 L 0.296875 -5.546875 C 0.710938 -4.867188 1.207031 -4.316406 1.78125 -3.890625 C 2.351562 -3.460938 3.066406 -3.25 3.921875 -3.25 C 5.847656 -3.25 6.8125 -4.367188 6.8125 -6.609375 Z M 6.8125 -20.3125 "/></g></g></g><g fill="#4a87ce" fill-opacity="1"><g transform="translate(136.9745, 247.155334)"><g><path d="M 12.796875 -3.65625 C 13.429688 -3.65625 13.867188 -3.710938 14.109375 -3.828125 L 14.171875 -3.828125 L 14.015625 0 L 2.625 0 L 2.625 -20.34375 C 2.894531 -20.320312 3.195312 -20.304688 3.53125 -20.296875 L 4.59375 -20.28125 C 5.300781 -20.257812 6.070312 -20.25 6.90625 -20.25 C 9.226562 -20.25 11.53125 -20.285156 13.8125 -20.359375 C 13.695312 -19.472656 13.640625 -18.28125 13.640625 -16.78125 C 13.640625 -16.625 13.648438 -16.503906 13.671875 -16.421875 L 13.640625 -16.375 C 13.109375 -16.53125 12.359375 -16.609375 11.390625 -16.609375 L 6.59375 -16.609375 L 6.59375 -12.71875 L 10.203125 -12.71875 C 11.316406 -12.71875 11.984375 -12.75 12.203125 -12.8125 L 12.25 -9.0625 C 11.757812 -9.101562 11.128906 -9.125 10.359375 -9.125 L 6.59375 -9.125 L 6.59375 -3.65625 Z M 12.796875 -3.65625 "/></g></g></g><g fill="#4a87ce" fill-opacity="1"><g transform="translate(152.590877, 247.155334)"><g><path d="M 6.859375 0 C 6.992188 -0.394531 7.0625 -1.316406 7.0625 -2.765625 L 7.0625 -7 C 5.300781 -10.863281 4.175781 -13.273438 3.6875 -14.234375 C 3.207031 -15.191406 2.800781 -15.953125 2.46875 -16.515625 C 1.40625 -18.296875 0.765625 -19.316406 0.546875 -19.578125 C 0.335938 -19.847656 0.117188 -20.070312 -0.109375 -20.25 L 5.140625 -20.25 C 5.253906 -20.039062 5.40625 -19.738281 5.59375 -19.34375 L 9.28125 -11.5625 C 9.457031 -11.988281 9.660156 -12.46875 9.890625 -13 C 12.109375 -17.757812 13.226562 -20.175781 13.25 -20.25 L 18.28125 -20.25 C 17.757812 -19.832031 17.125 -18.957031 16.375 -17.625 C 16.144531 -17.226562 15.910156 -16.773438 15.671875 -16.265625 L 12.234375 -9.109375 C 11.847656 -8.242188 11.519531 -7.460938 11.25 -6.765625 L 11.25 -2.40625 C 11.25 -1.382812 11.3125 -0.582031 11.4375 0 Z M 6.859375 0 "/></g></g></g><g fill="#4a87ce" fill-opacity="1"><g transform="translate(170.749102, 247.155334)"><g><path d="M 14.84375 -19.109375 L 14.546875 -14.640625 L 14.4375 -14.609375 C 13.6875 -15.734375 12.410156 -16.460938 10.609375 -16.796875 C 10.035156 -16.910156 9.488281 -16.96875 8.96875 -16.96875 C 8.445312 -16.96875 8 -16.921875 7.625 -16.828125 C 7.257812 -16.742188 6.945312 -16.613281 6.6875 -16.4375 C 6.125 -16.070312 5.84375 -15.59375 5.84375 -15 C 5.84375 -14.226562 6.085938 -13.648438 6.578125 -13.265625 C 7.179688 -12.804688 8.1875 -12.484375 9.59375 -12.296875 C 11.007812 -12.109375 12.144531 -11.847656 13 -11.515625 C 13.851562 -11.191406 14.550781 -10.785156 15.09375 -10.296875 C 16.132812 -9.359375 16.65625 -8.035156 16.65625 -6.328125 C 16.65625 -4.097656 15.8125 -2.378906 14.125 -1.171875 C 12.6875 -0.140625 10.867188 0.375 8.671875 0.375 C 6.910156 0.375 5.164062 0.0390625 3.4375 -0.625 C 2.875 -0.84375 2.378906 -1.101562 1.953125 -1.40625 L 2.109375 -6.484375 L 2.171875 -6.53125 C 3.429688 -4.351562 5.5 -3.265625 8.375 -3.265625 C 10.414062 -3.265625 11.765625 -3.757812 12.421875 -4.75 C 12.640625 -5.082031 12.75 -5.453125 12.75 -5.859375 C 12.75 -6.273438 12.679688 -6.617188 12.546875 -6.890625 C 12.421875 -7.160156 12.207031 -7.390625 11.90625 -7.578125 C 11.3125 -7.960938 10.316406 -8.21875 8.921875 -8.34375 C 7.535156 -8.476562 6.398438 -8.726562 5.515625 -9.09375 C 4.640625 -9.46875 3.9375 -9.921875 3.40625 -10.453125 C 2.457031 -11.429688 1.984375 -12.789062 1.984375 -14.53125 C 1.984375 -16.34375 2.613281 -17.804688 3.875 -18.921875 C 5.164062 -20.054688 6.90625 -20.625 9.09375 -20.625 C 11.28125 -20.625 13.195312 -20.117188 14.84375 -19.109375 Z M 14.84375 -19.109375 "/></g></g></g><g fill="#4a87ce" fill-opacity="1"><g transform="translate(188.907327, 247.155334)"><g><path d="M 14.84375 -19.109375 L 14.546875 -14.640625 L 14.4375 -14.609375 C 13.6875 -15.734375 12.410156 -16.460938 10.609375 -16.796875 C 10.035156 -16.910156 9.488281 -16.96875 8.96875 -16.96875 C 8.445312 -16.96875 8 -16.921875 7.625 -16.828125 C 7.257812 -16.742188 6.945312 -16.613281 6.6875 -16.4375 C 6.125 -16.070312 5.84375 -15.59375 5.84375 -15 C 5.84375 -14.226562 6.085938 -13.648438 6.578125 -13.265625 C 7.179688 -12.804688 8.1875 -12.484375 9.59375 -12.296875 C 11.007812 -12.109375 12.144531 -11.847656 13 -11.515625 C 13.851562 -11.191406 14.550781 -10.785156 15.09375 -10.296875 C 16.132812 -9.359375 16.65625 -8.035156 16.65625 -6.328125 C 16.65625 -4.097656 15.8125 -2.378906 14.125 -1.171875 C 12.6875 -0.140625 10.867188 0.375 8.671875 0.375 C 6.910156 0.375 5.164062 0.0390625 3.4375 -0.625 C 2.875 -0.84375 2.378906 -1.101562 1.953125 -1.40625 L 2.109375 -6.484375 L 2.171875 -6.53125 C 3.429688 -4.351562 5.5 -3.265625 8.375 -3.265625 C 10.414062 -3.265625 11.765625 -3.757812 12.421875 -4.75 C 12.640625 -5.082031 12.75 -5.453125 12.75 -5.859375 C 12.75 -6.273438 12.679688 -6.617188 12.546875 -6.890625 C 12.421875 -7.160156 12.207031 -7.390625 11.90625 -7.578125 C 11.3125 -7.960938 10.316406 -8.21875 8.921875 -8.34375 C 7.535156 -8.476562 6.398438 -8.726562 5.515625 -9.09375 C 4.640625 -9.46875 3.9375 -9.921875 3.40625 -10.453125 C 2.457031 -11.429688 1.984375 -12.789062 1.984375 -14.53125 C 1.984375 -16.34375 2.613281 -17.804688 3.875 -18.921875 C 5.164062 -20.054688 6.90625 -20.625 9.09375 -20.625 C 11.28125 -20.625 13.195312 -20.117188 14.84375 -19.109375 Z M 14.84375 -19.109375 "/></g></g></g><g fill="#4a87ce" fill-opacity="1"><g transform="translate(207.065552, 247.155334)"><g><path d="M 4.265625 -2.40625 C 3.347656 -3.289062 2.625 -4.347656 2.09375 -5.578125 C 1.5625 -6.816406 1.296875 -8.175781 1.296875 -9.65625 C 1.296875 -11.132812 1.539062 -12.53125 2.03125 -13.84375 C 2.53125 -15.164062 3.242188 -16.328125 4.171875 -17.328125 C 5.097656 -18.335938 6.210938 -19.140625 7.515625 -19.734375 C 8.828125 -20.328125 10.296875 -20.625 11.921875 -20.625 C 14.722656 -20.625 17.082031 -19.738281 19 -17.96875 C 21.039062 -16.082031 22.0625 -13.535156 22.0625 -10.328125 C 22.0625 -7.222656 21.007812 -4.644531 18.90625 -2.59375 C 17.601562 -1.320312 16.054688 -0.445312 14.265625 0.03125 C 13.378906 0.257812 12.34375 0.375 11.15625 0.375 C 9.976562 0.375 8.765625 0.132812 7.515625 -0.34375 C 6.273438 -0.832031 5.191406 -1.519531 4.265625 -2.40625 Z M 5.53125 -9.859375 C 5.53125 -8.921875 5.6875 -8.054688 6 -7.265625 C 6.3125 -6.472656 6.75 -5.789062 7.3125 -5.21875 C 8.5 -4.019531 10.023438 -3.421875 11.890625 -3.421875 C 13.660156 -3.421875 15.085938 -3.992188 16.171875 -5.140625 C 17.265625 -6.328125 17.8125 -7.945312 17.8125 -10 C 17.8125 -11.925781 17.285156 -13.535156 16.234375 -14.828125 C 15.109375 -16.203125 13.566406 -16.890625 11.609375 -16.890625 C 9.710938 -16.890625 8.207031 -16.191406 7.09375 -14.796875 C 6.050781 -13.484375 5.53125 -11.835938 5.53125 -9.859375 Z M 5.53125 -9.859375 "/></g></g></g><g fill="#4a87ce" fill-opacity="1"><g transform="translate(230.429236, 247.155334)"><g><path d="M 2.75 0 C 2.8125 -0.34375 2.84375 -0.71875 2.84375 -1.125 L 2.84375 -20.25 L 5.890625 -20.25 L 13.953125 -7.546875 L 13.953125 -19.203125 C 13.953125 -19.765625 13.90625 -20.113281 13.8125 -20.25 L 17.921875 -20.25 C 17.867188 -19.84375 17.84375 -19.394531 17.84375 -18.90625 L 17.84375 0 L 14.671875 0 L 6.734375 -12.1875 L 6.734375 0 Z M 2.75 0 "/></g></g></g><g fill="#000000" fill-opacity="1"><g transform="translate(135.320665, 266.186935)"><g><path d="M 1.65625 -4.28125 L 3.21875 -4.28125 L 3.21875 -3.171875 L 1.65625 -3.171875 L 1.65625 0 L 0.4375 0 L 0.4375 -7.703125 L 3.640625 -7.703125 L 3.640625 -6.59375 L 1.65625 -6.59375 Z M 1.65625 -4.28125 "/></g></g></g><g fill="#000000" fill-opacity="1"><g transform="translate(143.502027, 266.186935)"><g><path d="M 1.59375 -7.703125 L 1.59375 -1.765625 C 1.59375 -1.484375 1.648438 -1.285156 1.765625 -1.171875 C 1.878906 -1.066406 2.03125 -1.015625 2.21875 -1.015625 C 2.414062 -1.015625 2.566406 -1.066406 2.671875 -1.171875 C 2.785156 -1.285156 2.84375 -1.484375 2.84375 -1.765625 L 2.84375 -7.703125 L 4 -7.703125 L 4 -1.84375 C 4 -1.21875 3.84375 -0.738281 3.53125 -0.40625 C 3.226562 -0.0703125 2.78125 0.09375 2.1875 0.09375 C 1.59375 0.09375 1.144531 -0.0703125 0.84375 -0.40625 C 0.539062 -0.738281 0.390625 -1.21875 0.390625 -1.84375 L 0.390625 -7.703125 Z M 1.59375 -7.703125 "/></g></g></g><g fill="#000000" fill-opacity="1"><g transform="translate(152.276971, 266.186935)"><g><path d="M 0.4375 -7.703125 L 1.65625 -7.703125 L 1.65625 -1.09375 L 3.640625 -1.09375 L 3.640625 0 L 0.4375 0 Z M 0.4375 -7.703125 "/></g></g></g><g fill="#000000" fill-opacity="1"><g transform="translate(160.403377, 266.186935)"><g><path d="M 0.4375 -7.703125 L 1.65625 -7.703125 L 1.65625 -1.09375 L 3.640625 -1.09375 L 3.640625 0 L 0.4375 0 Z M 0.4375 -7.703125 "/></g></g></g><g fill="#000000" fill-opacity="1"><g transform="translate(168.529786, 266.186935)"><g><path d="M 0.28125 -5.859375 C 0.28125 -6.472656 0.425781 -6.945312 0.71875 -7.28125 C 1.019531 -7.613281 1.46875 -7.78125 2.0625 -7.78125 C 2.65625 -7.78125 3.097656 -7.613281 3.390625 -7.28125 C 3.691406 -6.945312 3.84375 -6.472656 3.84375 -5.859375 L 3.84375 -5.609375 L 2.703125 -5.609375 L 2.703125 -5.921875 C 2.703125 -6.203125 2.648438 -6.398438 2.546875 -6.515625 C 2.441406 -6.628906 2.289062 -6.6875 2.09375 -6.6875 C 1.90625 -6.6875 1.757812 -6.628906 1.65625 -6.515625 C 1.550781 -6.398438 1.5 -6.203125 1.5 -5.921875 C 1.5 -5.660156 1.554688 -5.425781 1.671875 -5.21875 C 1.785156 -5.019531 1.929688 -4.832031 2.109375 -4.65625 C 2.285156 -4.476562 2.472656 -4.296875 2.671875 -4.109375 C 2.878906 -3.929688 3.070312 -3.738281 3.25 -3.53125 C 3.425781 -3.320312 3.570312 -3.078125 3.6875 -2.796875 C 3.800781 -2.523438 3.859375 -2.207031 3.859375 -1.84375 C 3.859375 -1.21875 3.707031 -0.738281 3.40625 -0.40625 C 3.101562 -0.0703125 2.65625 0.09375 2.0625 0.09375 C 1.46875 0.09375 1.015625 -0.0703125 0.703125 -0.40625 C 0.398438 -0.738281 0.25 -1.21875 0.25 -1.84375 L 0.25 -2.328125 L 1.390625 -2.328125 L 1.390625 -1.765625 C 1.390625 -1.492188 1.445312 -1.300781 1.5625 -1.1875 C 1.675781 -1.070312 1.832031 -1.015625 2.03125 -1.015625 C 2.21875 -1.015625 2.367188 -1.070312 2.484375 -1.1875 C 2.597656 -1.300781 2.65625 -1.492188 2.65625 -1.765625 C 2.65625 -2.035156 2.59375 -2.269531 2.46875 -2.46875 C 2.351562 -2.664062 2.207031 -2.851562 2.03125 -3.03125 C 1.851562 -3.21875 1.664062 -3.398438 1.46875 -3.578125 C 1.269531 -3.753906 1.082031 -3.945312 0.90625 -4.15625 C 0.726562 -4.375 0.578125 -4.617188 0.453125 -4.890625 C 0.335938 -5.160156 0.28125 -5.484375 0.28125 -5.859375 Z M 0.28125 -5.859375 "/></g></g></g><g fill="#000000" fill-opacity="1"><g transform="translate(177.040922, 266.186935)"><g><path d="M 0.09375 -7.703125 L 3.828125 -7.703125 L 3.828125 -6.59375 L 2.5625 -6.59375 L 2.5625 0 L 1.359375 0 L 1.359375 -6.59375 L 0.09375 -6.59375 Z M 0.09375 -7.703125 "/></g></g></g><g fill="#000000" fill-opacity="1"><g transform="translate(185.354202, 266.186935)"><g><path d="M 4.359375 0 L 3.140625 0 L 2.921875 -1.390625 L 1.4375 -1.390625 L 1.234375 0 L 0.125 0 L 1.359375 -7.703125 L 3.125 -7.703125 Z M 1.59375 -2.4375 L 2.765625 -2.4375 L 2.171875 -6.34375 Z M 1.59375 -2.4375 "/></g></g></g><g fill="#000000" fill-opacity="1"><g transform="translate(194.228082, 266.186935)"><g><path d="M 3.953125 -2.875 L 3.953125 -1.84375 C 3.953125 -1.21875 3.796875 -0.738281 3.484375 -0.40625 C 3.179688 -0.0703125 2.734375 0.09375 2.140625 0.09375 C 1.546875 0.09375 1.097656 -0.0703125 0.796875 -0.40625 C 0.492188 -0.738281 0.34375 -1.21875 0.34375 -1.84375 L 0.34375 -5.859375 C 0.34375 -6.472656 0.492188 -6.945312 0.796875 -7.28125 C 1.097656 -7.613281 1.546875 -7.78125 2.140625 -7.78125 C 2.734375 -7.78125 3.179688 -7.613281 3.484375 -7.28125 C 3.796875 -6.945312 3.953125 -6.472656 3.953125 -5.859375 L 3.953125 -5.109375 L 2.8125 -5.109375 L 2.8125 -5.921875 C 2.8125 -6.203125 2.753906 -6.398438 2.640625 -6.515625 C 2.523438 -6.628906 2.367188 -6.6875 2.171875 -6.6875 C 1.984375 -6.6875 1.832031 -6.628906 1.71875 -6.515625 C 1.601562 -6.398438 1.546875 -6.203125 1.546875 -5.921875 L 1.546875 -1.765625 C 1.546875 -1.492188 1.601562 -1.300781 1.71875 -1.1875 C 1.832031 -1.070312 1.984375 -1.015625 2.171875 -1.015625 C 2.367188 -1.015625 2.523438 -1.070312 2.640625 -1.1875 C 2.753906 -1.300781 2.8125 -1.492188 2.8125 -1.765625 L 2.8125 -2.875 Z M 3.953125 -2.875 "/></g></g></g><g fill="#000000" fill-opacity="1"><g transform="translate(202.871123, 266.186935)"><g><path d="M 2.03125 -3.0625 L 1.65625 -2.359375 L 1.65625 0 L 0.4375 0 L 0.4375 -7.703125 L 1.65625 -7.703125 L 1.65625 -4.34375 L 3.234375 -7.703125 L 4.4375 -7.703125 L 2.765625 -4.265625 L 4.4375 0 L 3.203125 0 Z M 2.03125 -3.0625 "/></g></g></g><g fill="#000000" fill-opacity="1"><g transform="translate(211.821941, 266.186935)"><g/></g></g><g fill="#000000" fill-opacity="1"><g transform="translate(217.925779, 266.186935)"><g><path d="M 0.4375 -7.703125 L 2.359375 -7.703125 C 2.960938 -7.703125 3.410156 -7.539062 3.703125 -7.21875 C 4.003906 -6.894531 4.15625 -6.421875 4.15625 -5.796875 L 4.15625 -1.90625 C 4.15625 -1.28125 4.003906 -0.804688 3.703125 -0.484375 C 3.410156 -0.160156 2.960938 0 2.359375 0 L 0.4375 0 Z M 1.65625 -6.59375 L 1.65625 -1.09375 L 2.328125 -1.09375 C 2.523438 -1.09375 2.675781 -1.148438 2.78125 -1.265625 C 2.894531 -1.378906 2.953125 -1.570312 2.953125 -1.84375 L 2.953125 -5.859375 C 2.953125 -6.128906 2.894531 -6.316406 2.78125 -6.421875 C 2.675781 -6.535156 2.523438 -6.59375 2.328125 -6.59375 Z M 1.65625 -6.59375 "/></g></g></g><g fill="#000000" fill-opacity="1"><g transform="translate(226.810645, 266.186935)"><g><path d="M 1.65625 -4.453125 L 3.3125 -4.453125 L 3.3125 -3.359375 L 1.65625 -3.359375 L 1.65625 -1.09375 L 3.734375 -1.09375 L 3.734375 0 L 0.4375 0 L 0.4375 -7.703125 L 3.734375 -7.703125 L 3.734375 -6.59375 L 1.65625 -6.59375 Z M 1.65625 -4.453125 "/></g></g></g><g fill="#000000" fill-opacity="1"><g transform="translate(235.255823, 266.186935)"><g><path d="M 2.265625 -1.421875 L 3.1875 -7.703125 L 4.296875 -7.703125 L 3.109375 0 L 1.3125 0 L 0.125 -7.703125 L 1.34375 -7.703125 Z M 2.265625 -1.421875 "/></g></g></g></svg>